<svg viewBox="0 0 1481 400" xmlns="http://www.w3.org/2000/svg"><g><g><g><g><g><line x1="41.171875" y1="377" x2="36.171875" y2="377" style="visibility: inherit;" fill="rgb(0, 0, 0)" stroke="rgb(204, 204, 204)" stroke-width="1px"></line><line x1="41.171875" y1="348" x2="36.171875" y2="348" style="visibility: inherit;" fill="rgb(0, 0, 0)" stroke="rgb(204, 204, 204)" stroke-width="1px"></line><line x1="41.171875" y1="319.00000000000006" x2="36.171875" y2="319.00000000000006" style="visibility: inherit;" fill="rgb(0, 0, 0)" stroke="rgb(204, 204, 204)" stroke-width="1px"></line><line x1="41.171875" y1="290" x2="36.171875" y2="290" style="visibility: inherit;" fill="rgb(0, 0, 0)" stroke="rgb(204, 204, 204)" stroke-width="1px"></line><line x1="41.171875" y1="261.00000000000006" x2="36.171875" y2="261.00000000000006" style="visibility: inherit;" fill="rgb(0, 0, 0)" stroke="rgb(204, 204, 204)" stroke-width="1px"></line><line x1="41.171875" y1="232" x2="36.171875" y2="232" style="visibility: inherit;" fill="rgb(0, 0, 0)" stroke="rgb(204, 204, 204)" stroke-width="1px"></line><line x1="41.171875" y1="203.00000000000003" x2="36.171875" y2="203.00000000000003" style="visibility: inherit;" fill="rgb(0, 0, 0)" stroke="rgb(204, 204, 204)" stroke-width="1px"></line><line x1="41.171875" y1="174" x2="36.171875" y2="174" style="visibility: inherit;" fill="rgb(0, 0, 0)" stroke="rgb(204, 204, 204)" stroke-width="1px"></line><line x1="41.171875" y1="145" x2="36.171875" y2="145" style="visibility: inherit;" fill="rgb(0, 0, 0)" stroke="rgb(204, 204, 204)" stroke-width="1px"></line><line x1="41.171875" y1="116.00000000000004" x2="36.171875" y2="116.00000000000004" style="visibility: inherit;" fill="rgb(0, 0, 0)" stroke="rgb(204, 204, 204)" stroke-width="1px"></line><line x1="41.171875" y1="87.00000000000003" x2="36.171875" y2="87.00000000000003" style="visibility: inherit;" fill="rgb(0, 0, 0)" stroke="rgb(204, 204, 204)" stroke-width="1px"></line><line x1="41.171875" y1="58.00000000000004" x2="36.171875" y2="58.00000000000004" style="visibility: inherit;" fill="rgb(0, 0, 0)" stroke="rgb(204, 204, 204)" stroke-width="1px"></line><line x1="41.171875" y1="29.00000000000002" x2="36.171875" y2="29.00000000000002" style="visibility: inherit;" fill="rgb(0, 0, 0)" stroke="rgb(204, 204, 204)" stroke-width="1px"></line><line x1="41.171875" y1="0" x2="36.171875" y2="0" style="visibility: inherit;" fill="rgb(0, 0, 0)" stroke="rgb(204, 204, 204)" stroke-width="1px"></line></g><g transform="translate(31.171875, 0)"><text x="0" y="377" dx="0em" dy="0.3em" style="text-anchor: end; visibility: hidden; font-family: Roboto, sans-serif; font-size: 12px; font-weight: 200;" fill="rgb(33, 33, 33)" stroke="none" stroke-width="1px">0.8</text><text x="0" y="348" dx="0em" dy="0.3em" style="text-anchor: end; visibility: inherit; font-family: Roboto, sans-serif; font-size: 12px; font-weight: 200;" fill="rgb(33, 33, 33)" stroke="none" stroke-width="1px">0.9</text><text x="0" y="319.00000000000006" dx="0em" dy="0.3em" style="text-anchor: end; visibility: inherit; font-family: Roboto, sans-serif; font-size: 12px; font-weight: 200;" fill="rgb(33, 33, 33)" stroke="none" stroke-width="1px">1</text><text x="0" y="290" dx="0em" dy="0.3em" style="text-anchor: end; visibility: inherit; font-family: Roboto, sans-serif; font-size: 12px; font-weight: 200;" fill="rgb(33, 33, 33)" stroke="none" stroke-width="1px">1.1</text><text x="0" y="261.00000000000006" dx="0em" dy="0.3em" style="text-anchor: end; visibility: inherit; font-family: Roboto, sans-serif; font-size: 12px; font-weight: 200;" fill="rgb(33, 33, 33)" stroke="none" stroke-width="1px">1.2</text><text x="0" y="232" dx="0em" dy="0.3em" style="text-anchor: end; visibility: inherit; font-family: Roboto, sans-serif; font-size: 12px; font-weight: 200;" fill="rgb(33, 33, 33)" stroke="none" stroke-width="1px">1.3</text><text x="0" y="203.00000000000003" dx="0em" dy="0.3em" style="text-anchor: end; visibility: inherit; font-family: Roboto, sans-serif; font-size: 12px; font-weight: 200;" fill="rgb(33, 33, 33)" stroke="none" stroke-width="1px">1.4</text><text x="0" y="174" dx="0em" dy="0.3em" style="text-anchor: end; visibility: inherit; font-family: Roboto, sans-serif; font-size: 12px; font-weight: 200;" fill="rgb(33, 33, 33)" stroke="none" stroke-width="1px">1.5</text><text x="0" y="145" dx="0em" dy="0.3em" style="text-anchor: end; visibility: inherit; font-family: Roboto, sans-serif; font-size: 12px; font-weight: 200;" fill="rgb(33, 33, 33)" stroke="none" stroke-width="1px">1.6</text><text x="0" y="116.00000000000004" dx="0em" dy="0.3em" style="text-anchor: end; visibility: inherit; font-family: Roboto, sans-serif; font-size: 12px; font-weight: 200;" fill="rgb(33, 33, 33)" stroke="none" stroke-width="1px">1.7</text><text x="0" y="87.00000000000003" dx="0em" dy="0.3em" style="text-anchor: end; visibility: inherit; font-family: Roboto, sans-serif; font-size: 12px; font-weight: 200;" fill="rgb(33, 33, 33)" stroke="none" stroke-width="1px">1.8</text><text x="0" y="58.00000000000004" dx="0em" dy="0.3em" style="text-anchor: end; visibility: inherit; font-family: Roboto, sans-serif; font-size: 12px; font-weight: 200;" fill="rgb(33, 33, 33)" stroke="none" stroke-width="1px">1.9</text><text x="0" y="29.00000000000002" dx="0em" dy="0.3em" style="text-anchor: end; visibility: inherit; font-family: Roboto, sans-serif; font-size: 12px; font-weight: 200;" fill="rgb(33, 33, 33)" stroke="none" stroke-width="1px">2</text><text x="0" y="0" dx="0em" dy="0.3em" style="text-anchor: end; visibility: hidden; font-family: Roboto, sans-serif; font-size: 12px; font-weight: 200;" fill="rgb(33, 33, 33)" stroke="none" stroke-width="1px">2.1</text></g><line x1="41.171875" y1="0" x2="41.171875" y2="377" fill="rgb(0, 0, 0)" stroke="rgb(204, 204, 204)" stroke-width="1px"></line></g></g><g transform="translate(41, 0)" clip-path="url(#clip_0)"><clipPath id="clip_0"><rect width="1439" height="377"></rect></clipPath><g><g><g><line x1="0" y1="0" x2="0" y2="377" fill="rgb(0, 0, 0)" stroke="rgb(66, 66, 66)" stroke-width="1px" opacity="0.25"></line><line x1="130.8934659090909" y1="0" x2="130.8934659090909" y2="377" fill="rgb(0, 0, 0)" stroke="rgb(66, 66, 66)" stroke-width="1px" opacity="0.25"></line><line x1="261.7869318181818" y1="0" x2="261.7869318181818" y2="377" fill="rgb(0, 0, 0)" stroke="rgb(66, 66, 66)" stroke-width="1px" opacity="0.25"></line><line x1="392.6803977272727" y1="0" x2="392.6803977272727" y2="377" fill="rgb(0, 0, 0)" stroke="rgb(66, 66, 66)" stroke-width="1px" opacity="0.25"></line><line x1="523.5738636363636" y1="0" x2="523.5738636363636" y2="377" fill="rgb(0, 0, 0)" stroke="rgb(66, 66, 66)" stroke-width="1px" opacity="0.25"></line><line x1="654.4673295454545" y1="0" x2="654.4673295454545" y2="377" fill="rgb(0, 0, 0)" stroke="rgb(66, 66, 66)" stroke-width="1px" opacity="0.25"></line><line x1="785.3607954545454" y1="0" x2="785.3607954545454" y2="377" fill="rgb(0, 0, 0)" stroke="rgb(66, 66, 66)" stroke-width="1px" opacity="0.25"></line><line x1="916.2542613636364" y1="0" x2="916.2542613636364" y2="377" fill="rgb(0, 0, 0)" stroke="rgb(66, 66, 66)" stroke-width="1px" opacity="0.25"></line><line x1="1047.1477272727273" y1="0" x2="1047.1477272727273" y2="377" fill="rgb(0, 0, 0)" stroke="rgb(66, 66, 66)" stroke-width="1px" opacity="0.25"></line><line x1="1178.0411931818182" y1="0" x2="1178.0411931818182" y2="377" fill="rgb(0, 0, 0)" stroke="rgb(66, 66, 66)" stroke-width="1px" opacity="0.25"></line><line x1="1308.934659090909" y1="0" x2="1308.934659090909" y2="377" fill="rgb(0, 0, 0)" stroke="rgb(66, 66, 66)" stroke-width="1px" opacity="0.25"></line><line x1="1439.828125" y1="0" x2="1439.828125" y2="377" fill="rgb(0, 0, 0)" stroke="rgb(66, 66, 66)" stroke-width="1px" opacity="0.25"></line></g><g><line x1="0" y1="377" x2="1439.828125" y2="377" fill="rgb(0, 0, 0)" stroke="rgb(66, 66, 66)" stroke-width="1px" opacity="0.25"></line><line x1="0" y1="348" x2="1439.828125" y2="348" fill="rgb(0, 0, 0)" stroke="rgb(66, 66, 66)" stroke-width="1px" opacity="0.25"></line><line x1="0" y1="319.00000000000006" x2="1439.828125" y2="319.00000000000006" fill="rgb(0, 0, 0)" stroke="rgb(66, 66, 66)" stroke-width="1px" opacity="0.25"></line><line x1="0" y1="290" x2="1439.828125" y2="290" fill="rgb(0, 0, 0)" stroke="rgb(66, 66, 66)" stroke-width="1px" opacity="0.25"></line><line x1="0" y1="261.00000000000006" x2="1439.828125" y2="261.00000000000006" fill="rgb(0, 0, 0)" stroke="rgb(66, 66, 66)" stroke-width="1px" opacity="0.25"></line><line x1="0" y1="232" x2="1439.828125" y2="232" fill="rgb(0, 0, 0)" stroke="rgb(66, 66, 66)" stroke-width="1px" opacity="0.25"></line><line x1="0" y1="203.00000000000003" x2="1439.828125" y2="203.00000000000003" fill="rgb(0, 0, 0)" stroke="rgb(66, 66, 66)" stroke-width="1px" opacity="0.25"></line><line x1="0" y1="174" x2="1439.828125" y2="174" fill="rgb(0, 0, 0)" stroke="rgb(66, 66, 66)" stroke-width="1px" opacity="0.25"></line><line x1="0" y1="145" x2="1439.828125" y2="145" fill="rgb(0, 0, 0)" stroke="rgb(66, 66, 66)" stroke-width="1px" opacity="0.25"></line><line x1="0" y1="116.00000000000004" x2="1439.828125" y2="116.00000000000004" fill="rgb(0, 0, 0)" stroke="rgb(66, 66, 66)" stroke-width="1px" opacity="0.25"></line><line x1="0" y1="87.00000000000003" x2="1439.828125" y2="87.00000000000003" fill="rgb(0, 0, 0)" stroke="rgb(66, 66, 66)" stroke-width="1px" opacity="0.25"></line><line x1="0" y1="58.00000000000004" x2="1439.828125" y2="58.00000000000004" fill="rgb(0, 0, 0)" stroke="rgb(66, 66, 66)" stroke-width="1px" opacity="0.25"></line><line x1="0" y1="29.00000000000002" x2="1439.828125" y2="29.00000000000002" fill="rgb(0, 0, 0)" stroke="rgb(66, 66, 66)" stroke-width="1px" opacity="0.25"></line><line x1="0" y1="0" x2="1439.828125" y2="0" fill="rgb(0, 0, 0)" stroke="rgb(66, 66, 66)" stroke-width="1px" opacity="0.25"></line></g></g></g><g><g><line x1="0" y1="609" x2="1439.828125" y2="609" fill="rgb(0, 0, 0)" stroke="rgb(153, 153, 153)" stroke-width="1.5px"></line></g></g><g><g><line x1="130.8934659090909" y1="0" x2="130.8934659090909" y2="377" fill="rgb(0, 0, 0)" stroke="rgb(153, 153, 153)" stroke-width="1.5px"></line></g></g><g><g><g><g><g><path stroke="rgb(255, 112, 67)" stroke-width="2px" d="M163.61683238636363,-11.97200000559086L170.16150568181817,4.099416871332106L176.7061789772727,10.635000613036638L183.25085227272726,9.576425323949165L189.7955255681818,16.25314222382668L196.34019886363635,20.84605132373319L202.8848721590909,23.840102238414186L209.42954545454543,33.20926173864045L215.97421875,37.284480158649004L222.51889204545455,43.11605366672533L229.0635653409091,41.610119906671876L235.60823863636364,35.83364552312689L242.15291193181818,37.39244430761207L248.69758522727273,33.35066698745786L255.24225852272727,40.206419989983935L261.7869318181818,48.402953685646054L268.3316051136364,48.3441768515686L274.8762784090909,50.43173223806096L281.4209517045455,52.867459972405065L287.965625,52.414875675321326L294.51029829545456,55.49573916448153L301.0549715909091,55.894243647458936L307.5996448863636,57.66455264667088L314.14431818181816,59.32992672538416L320.68899147727274,66.32635226316418L327.23366477272725,64.95620724945321L333.7783380681818,59.52893002396984L340.32301136363634,63.30215579240236L346.8676846590909,70.87888790767977L353.4123579545454,71.81733664341323L359.95703125,76.03440382856188L366.5017045454545,70.69983879057605L373.0463778409091,72.2667027530365L379.5910511363636,69.25122847732528L386.1357244318182,73.26514225051977L392.6803977272727,80.41788958579485L399.22507102272726,82.35473441678774L405.7697443181818,90.30284729147074L412.3144176136364,87.19530786510454L418.85909090909087,87.3607891883908L425.4037642045455,83.06366751664665L431.9484375,101.6322050468211L438.4931107954546,134.23332092741444L445.0377840909091,152.93558629542446L451.58245738636367,164.18014936575457L458.1271306818182,168.29369276127065L464.67180397727276,168.47661295748358L471.2164772727273,174.65316233169807L477.76115056818185,170.7030937262214L484.30582386363636,171.8826607935344L490.8504971590909,172.4627936883402L497.39517045454545,172.5788764121314L503.93984374999997,172.53252062572122L510.48451704545454,173.67630797250936L517.029190340909,172.6805916644565L523.5738636363636,176.8043571005723L530.1185369318182,175.57821076455474L536.6632102272728,173.70572791899892L543.2078835227272,173.42904044631513L549.7525568181818,176.197830971738L556.2972301136364,179.03069227734832L562.841903409091,178.8976091492153L569.3865767045454,178.24936175036297L575.93125,177.8604133110516L582.4759232954545,175.30704645998912L589.0205965909091,178.24103453569197L595.5652698863636,178.1802155662333L602.1099431818182,173.27173159651488L608.6546164772727,175.72063745339233L615.1992897727272,177.71198461818418L621.7439630681819,176.56359127979115L628.2886363636363,183.62335507762808L634.8333096590909,181.69961452896817L641.3779829545455,175.41816292056689L647.92265625,174.7233042350367L654.4673295454545,169.57357804959744L661.0120028409091,174.63854036918715L667.5566761363636,176.1463264119115L674.1013494318182,175.65900213071623L680.6460227272727,172.73339928715777L687.1906960227273,172.32363961654514L693.7353693181818,178.79417823861613L700.2800426136364,181.65571178859815L706.8247159090909,179.66062439600435L713.3693892045455,180.5399708099354L719.9140625,176.49718080444265L726.4587357954545,180.03391439010574L733.003409090909,211.64315241748025L739.5480823863637,237.56868859633164L746.0927556818182,252.57881663146233L752.6374289772727,261.78208469094403L759.1821022727272,266.38764557088354L765.7267755681819,266.2393829396065L772.2714488636364,266.0460356933294L778.8161221590909,265.651622632886L785.3607954545454,267.8045703051955L791.9054687500001,267.6695372270626L798.4501420454545,267.43772001308696L804.9948153409091,267.1710361673981L811.5394886363636,266.4890222093195L818.0841619318182,268.0866149628598L824.6288352272728,266.69036705281957L831.1735085227273,264.2866211830773L837.7181818181817,261.75397248859394L844.2628551136363,264.4915844666671L850.807528409091,266.2153512995071L857.3522017045455,264.02481558088226L863.896875,265.0536957869754L870.4415482954545,264.7314201050893L876.9862215909092,264.3060576828656L883.5308948863636,266.40562996341805L890.0755681818182,268.5237774912955L896.6202414772727,271.4998724022175L903.1649147727273,268.78472921601923L909.7095880681818,268.58243115754124L916.2542613636364,268.565455818243L922.7989346590908,266.3860701942844L929.3436079545455,265.99483877565876L935.88828125,268.74129680482395L942.4329545454545,268.71878483109384L948.977627840909,271.825669969396L955.5223011363637,272.62260372953193L962.0669744318183,271.75516195009095L968.6116477272727,268.96109296625826L975.1563210227272,266.83225947467076L981.7009943181818,264.7777548661684L988.2456676136364,263.57985787575575L994.7903409090909,267.4547213851519L1001.3350142045455,270.8004291140501L1007.8796874999999,269.2350554992833L1014.4243607954546,269.1658374148654L1020.9690340909091,267.9527057455806L1027.5137073863636,281.73642866890594L1034.058380681818,310.36465960193254L1040.6030539772728,325.2331953850304L1047.1477272727273,332.0431191448518L1053.6924005681817,338.40267040277416L1060.2370738636364,343.2392046090656L1066.781747159091,345.9787258408483L1073.3264204545455,345.94043603551484L1079.87109375,346.2422607362991L1086.4157670454545,347.56015751485387L1092.960440340909,348.049293933656L1099.5051136363636,347.6003770460762L1106.0497869318183,349.2914272564696L1112.5944602272727,346.9072534333496L1119.1391335227272,345.09395475928955L1125.683806818182,343.83197433796505L1132.2284801136364,343.8867825451314L1138.7731534090908,346.4020714630377L1145.3178267045455,347.6096431654508L1151.8625,343.98418342124313L1158.4071732954546,343.18930847079093L1164.951846590909,342.22518562454303L1171.4965198863636,344.02471241461234L1178.0411931818182,343.8748249596774L1184.5858664772727,347.7636958829415L1191.1305397727272,347.649420217982L1197.6752130681818,347.1516527392334L1204.2198863636363,346.9109949623267L1210.764559659091,348.90099494187353L1217.3092329545455,349.06259646730615L1223.85390625,349.6235583228886L1230.3985795454544,348.2317321063888L1236.943252840909,347.9998396731503L1243.4879261363637,349.136701613491L1250.0325994318182,347.3596186338813L1256.5772727272727,348.416168481049L1263.1219460227273,347.6812994181735L1269.6666193181818,351.47438223955766L1276.2112926136363,354.0170278060301L1282.755965909091,352.1902188961425L1289.3006392045456,353.73892992166986L1295.8453125,353.136958273818L1302.3899857954545,352.70617756400696L1308.934659090909,352.95810394975064L1315.4793323863637,353.02806013520075L1322.0240056818182,352.6176348310442" style="fill: none;" fill="none"></path></g></g></g></g><g opacity="0.2"><g><g><g><path stroke="rgb(255, 112, 67)" stroke-width="2px" d="M150.52748579545454,-11.397031307220407L157.07215909090908,0.8700337409973595L163.61683238636363,19.488011837005647L170.16150568181817,26.3319721221924L176.7061789772727,19.98098993301396L183.25085227272726,8.033012390136726L189.7955255681818,26.100002765655553L196.34019886363635,27.66598606109621L202.8848721590909,28.304022789001483L209.42954545454543,47.21201443672181L215.97421875,43.38400149345399L222.51889204545455,51.851989269256634L229.0635653409091,39.35298943519594L235.60823863636364,27.1730079650879L242.15291193181818,39.72998285293583L248.69758522727273,27.289027214050325L255.24225852272727,50.48900508880617L261.7869318181818,60.697005033493085L268.3316051136364,48.25601482391358L274.8762784090909,53.56299662590029L281.4209517045455,56.521003484725995L287.965625,51.736004590988166L294.51029829545456,60.11701250076297L301.0549715909091,56.49199867248538L307.5996448863636,60.320011615753195L314.14431818181816,61.82798528671266L320.68899147727274,76.82098412513736L327.23366477272725,62.900990486145055L333.7783380681818,51.3880159854889L340.32301136363634,68.96199369430545L346.8676846590909,82.24398517608645L353.4123579545454,73.22500967979435L359.95703125,82.36000442504884L366.5017045454545,62.69799137115482L373.0463778409091,74.61699867248535L379.5910511363636,64.72801709175113L386.1357244318182,79.28601288795471L392.6803977272727,91.1470105648041L399.22507102272726,85.26000165939335L405.7697443181818,102.22501659393313L412.3144176136364,82.53399872779849L418.85909090909087,87.60901117324832L425.4037642045455,76.61798501014714L431.9484375,129.48501133918765L438.4931107954546,183.13499474525455L445.0377840909091,180.9889843463898L451.58245738636367,181.046993970871L458.1271306818182,174.4640078544617L464.67180397727276,168.75099325180057L471.2164772727273,183.91798639297488L477.76115056818185,164.7779908180237L484.30582386363636,173.65201139450073L490.8504971590909,173.33299303054812L497.39517045454545,172.753000497818L503.93984374999997,172.46298694610596L510.48451704545454,175.39198899269104L517.029190340909,171.18701720237735L523.5738636363636,182.9900052547455L530.1185369318182,173.7389912605286L536.6632102272728,170.8970036506653L543.2078835227272,173.01400923728943L549.7525568181818,180.35101675987246L556.2972301136364,183.27998423576358L562.841903409091,178.69798445701602L569.3865767045454,177.27699065208438L575.93125,177.27699065208438L582.4759232954545,171.47699618339539L589.0205965909091,182.64201664924622L595.5652698863636,178.0889871120453L602.1099431818182,165.90900564193728L608.6546164772727,179.39399623870852L615.1992897727272,180.69900536537173L621.7439630681819,174.84100127220154L628.2886363636363,194.21300077438357L634.8333096590909,178.81400370597842L641.3779829545455,165.9959855079651L647.92265625,173.68101620674136L654.4673295454545,161.84898877143863L661.0120028409091,182.2359838485718L667.5566761363636,178.40800547599795L674.1013494318182,174.92801570892337L680.6460227272727,168.34499502182007L687.1906960227273,171.70900011062622L693.7353693181818,188.49998617172244L700.2800426136364,185.9480121135712L706.8247159090909,176.66799330711368L713.3693892045455,181.8589904308319L719.9140625,170.4329957962036L726.4587357954545,185.33901476860046L733.003409090909,259.05700945854187L739.5480823863637,276.45699286460876L746.0927556818182,275.0940086841584L752.6374289772727,275.5869867801666L759.1821022727272,273.29598689079285L765.7267755681819,266.01698899269104L772.2714488636364,265.7560148239136L778.8161221590909,265.0600030422211L785.3607954545454,271.03399181365967L791.9054687500001,267.4669876098633L798.4501420454545,267.0899941921234L804.9948153409091,266.77101039886475L811.5394886363636,265.46600127220154L818.0841619318182,270.48300409317017L824.6288352272728,264.5959951877594L831.1735085227273,260.68100237846375L837.7181818181817,257.9549994468689L844.2628551136363,268.59800243377686L850.807528409091,268.8010015487671L857.3522017045455,260.73901200294495L863.896875,266.59701609611517L870.4415482954545,264.2480065822602L876.9862215909092,263.66801404953003L883.5308948863636,269.5549883842468L890.0755681818182,271.7009987831116L896.6202414772727,275.96401476860046L903.1649147727273,264.7120144367218L909.7095880681818,268.2789840698242L916.2542613636364,268.53999280929565L922.7989346590908,263.1169917583466L929.3436079545455,265.40799164772034L935.88828125,272.8609838485718L942.4329545454545,268.6850168704987L948.977627840909,276.48599767684937L955.5223011363637,273.8180043697357L962.0669744318183,270.45399928092957L968.6116477272727,264.76998949050903L975.1563210227272,263.63900923728943L981.7009943181818,261.6959979534149L988.2456676136364,261.7830123901367L994.7903409090909,273.2670166492462L1001.3350142045455,275.81899070739746L1007.8796874999999,266.88699507713324L1014.4243607954546,269.0620102882385L1020.9690340909091,266.13300824165344L1027.5137073863636,302.41201305389404L1034.058380681818,353.3070060014725L1040.6030539772728,347.5359990596771L1047.1477272727273,342.25800478458405L1053.6924005681817,347.9419972896576L1060.2370738636364,350.4940059185028L1066.781747159091,350.08800768852234L1073.3264204545455,345.88300132751465L1079.87109375,346.6949977874756L1086.4157670454545,349.53700268268585L1092.960440340909,348.78299856185913L1099.5051136363636,346.9270017147064L1106.0497869318183,351.82800257205963L1112.5944602272727,343.33099269866943L1119.1391335227272,342.3740067481995L1125.683806818182,341.9390037059784L1132.2284801136364,343.9689948558808L1138.7731534090908,350.17500483989716L1145.3178267045455,349.42100071907043L1151.8625,338.54599380493164L1158.4071732954546,341.9969960451126L1164.951846590909,340.7790013551712L1171.4965198863636,346.7240025997162L1178.0411931818182,343.64999377727514L1184.5858664772727,353.5970022678375L1191.1305397727272,347.4780067205429L1197.6752130681818,346.40500152111053L1204.2198863636363,346.5500082969666L1210.764559659091,351.88599491119385L1217.3092329545455,349.304998755455L1223.85390625,350.4650011062622L1230.3985795454544,346.1439927816391L1236.943252840909,347.65200102329254L1243.4879261363637,350.8419945240021L1250.0325994318182,344.6939941644669L1256.5772727272727,350.00099325180054L1263.1219460227273,346.5789958238602L1269.6666193181818,357.1640064716339L1276.2112926136363,357.83099615573883L1282.755965909091,349.45000553131104L1289.3006392045456,356.06199645996094L1295.8453125,352.2340008020401L1302.3899857954545,352.06000649929047L1308.934659090909,353.3359935283661L1315.4793323863637,353.13299441337585L1322.0240056818182,352.0019968748093" style="fill: none;" fill="none"></path></g></g></g></g></g></g><g transform="translate(41, 377)" clip-path="url(#clip_1)"><clipPath id="clip_1"><rect width="1439" height="23"></rect></clipPath><g><g><line x1="0" y1="0" x2="0" y2="5" style="visibility: inherit;" fill="rgb(0, 0, 0)" stroke="rgb(204, 204, 204)" stroke-width="1px"></line><line x1="130.8934659090909" y1="0" x2="130.8934659090909" y2="5" style="visibility: inherit;" fill="rgb(0, 0, 0)" stroke="rgb(204, 204, 204)" stroke-width="1px"></line><line x1="261.7869318181818" y1="0" x2="261.7869318181818" y2="5" style="visibility: inherit;" fill="rgb(0, 0, 0)" stroke="rgb(204, 204, 204)" stroke-width="1px"></line><line x1="392.6803977272727" y1="0" x2="392.6803977272727" y2="5" style="visibility: inherit;" fill="rgb(0, 0, 0)" stroke="rgb(204, 204, 204)" stroke-width="1px"></line><line x1="523.5738636363636" y1="0" x2="523.5738636363636" y2="5" style="visibility: inherit;" fill="rgb(0, 0, 0)" stroke="rgb(204, 204, 204)" stroke-width="1px"></line><line x1="654.4673295454545" y1="0" x2="654.4673295454545" y2="5" style="visibility: inherit;" fill="rgb(0, 0, 0)" stroke="rgb(204, 204, 204)" stroke-width="1px"></line><line x1="785.3607954545454" y1="0" x2="785.3607954545454" y2="5" style="visibility: inherit;" fill="rgb(0, 0, 0)" stroke="rgb(204, 204, 204)" stroke-width="1px"></line><line x1="916.2542613636364" y1="0" x2="916.2542613636364" y2="5" style="visibility: inherit;" fill="rgb(0, 0, 0)" stroke="rgb(204, 204, 204)" stroke-width="1px"></line><line x1="1047.1477272727273" y1="0" x2="1047.1477272727273" y2="5" style="visibility: inherit;" fill="rgb(0, 0, 0)" stroke="rgb(204, 204, 204)" stroke-width="1px"></line><line x1="1178.0411931818182" y1="0" x2="1178.0411931818182" y2="5" style="visibility: inherit;" fill="rgb(0, 0, 0)" stroke="rgb(204, 204, 204)" stroke-width="1px"></line><line x1="1308.934659090909" y1="0" x2="1308.934659090909" y2="5" style="visibility: inherit;" fill="rgb(0, 0, 0)" stroke="rgb(204, 204, 204)" stroke-width="1px"></line><line x1="1439.828125" y1="0" x2="1439.828125" y2="5" style="visibility: inherit;" fill="rgb(0, 0, 0)" stroke="rgb(204, 204, 204)" stroke-width="1px"></line></g><g transform="translate(0, 8)"><text x="0" y="0" dx="0em" dy="0.95em" style="text-anchor: middle; visibility: hidden; font-family: Roboto, sans-serif; font-size: 12px; font-weight: 200;" fill="rgb(33, 33, 33)" stroke="none" stroke-width="1px">-1k</text><text x="130.8934659090909" y="0" dx="0em" dy="0.95em" style="text-anchor: middle; visibility: inherit; font-family: Roboto, sans-serif; font-size: 12px; font-weight: 200;" fill="rgb(33, 33, 33)" stroke="none" stroke-width="1px">0</text><text x="261.7869318181818" y="0" dx="0em" dy="0.95em" style="text-anchor: middle; visibility: inherit; font-family: Roboto, sans-serif; font-size: 12px; font-weight: 200;" fill="rgb(33, 33, 33)" stroke="none" stroke-width="1px">1k</text><text x="392.6803977272727" y="0" dx="0em" dy="0.95em" style="text-anchor: middle; visibility: inherit; font-family: Roboto, sans-serif; font-size: 12px; font-weight: 200;" fill="rgb(33, 33, 33)" stroke="none" stroke-width="1px">2k</text><text x="523.5738636363636" y="0" dx="0em" dy="0.95em" style="text-anchor: middle; visibility: inherit; font-family: Roboto, sans-serif; font-size: 12px; font-weight: 200;" fill="rgb(33, 33, 33)" stroke="none" stroke-width="1px">3k</text><text x="654.4673295454545" y="0" dx="0em" dy="0.95em" style="text-anchor: middle; visibility: inherit; font-family: Roboto, sans-serif; font-size: 12px; font-weight: 200;" fill="rgb(33, 33, 33)" stroke="none" stroke-width="1px">4k</text><text x="785.3607954545454" y="0" dx="0em" dy="0.95em" style="text-anchor: middle; visibility: inherit; font-family: Roboto, sans-serif; font-size: 12px; font-weight: 200;" fill="rgb(33, 33, 33)" stroke="none" stroke-width="1px">5k</text><text x="916.2542613636364" y="0" dx="0em" dy="0.95em" style="text-anchor: middle; visibility: inherit; font-family: Roboto, sans-serif; font-size: 12px; font-weight: 200;" fill="rgb(33, 33, 33)" stroke="none" stroke-width="1px">6k</text><text x="1047.1477272727273" y="0" dx="0em" dy="0.95em" style="text-anchor: middle; visibility: inherit; font-family: Roboto, sans-serif; font-size: 12px; font-weight: 200;" fill="rgb(33, 33, 33)" stroke="none" stroke-width="1px">7k</text><text x="1178.0411931818182" y="0" dx="0em" dy="0.95em" style="text-anchor: middle; visibility: inherit; font-family: Roboto, sans-serif; font-size: 12px; font-weight: 200;" fill="rgb(33, 33, 33)" stroke="none" stroke-width="1px">8k</text><text x="1308.934659090909" y="0" dx="0em" dy="0.95em" style="text-anchor: middle; visibility: inherit; font-family: Roboto, sans-serif; font-size: 12px; font-weight: 200;" fill="rgb(33, 33, 33)" stroke="none" stroke-width="1px">9k</text><text x="1439.828125" y="0" dx="0em" dy="0.95em" style="text-anchor: middle; visibility: hidden; font-family: Roboto, sans-serif; font-size: 12px; font-weight: 200;" fill="rgb(33, 33, 33)" stroke="none" stroke-width="1px">10k</text></g><line x1="0" y1="0" x2="1439.828125" y2="0" fill="rgb(0, 0, 0)" stroke="rgb(204, 204, 204)" stroke-width="1px"></line></g></g></g></g></svg>